<?xml version="1.0" encoding="UTF-8" standalone="no"?>
<!-- Copyright 2017 mathsisfun.com -->
<svg xmlns="http://www.w3.org/2000/svg" width="416.4" height="120.9" version="1.1" style="font-family:'Comic Sans MS'; font-size:40px; fill:black;">
<defs>
	<marker id="id1" style="overflow:visible;" orient="auto">
		<path transform="scale(0.8) rotate(180) translate(12.5,0)" style="fill:black; stroke:black; stroke-width:1pt;" d="M 0,0 L 5,-5 L -12.5,0 L 5,5 L 0,0 z "/>
	</marker>
	<marker style="overflow:visible;" orient="auto">
		<path transform="matrix(-0.8,0,0,-0.8,-10,0)" style="fill:none; stroke:black; stroke-width:1pt;" d="M 0,0 5,-5 -12.5,0 5,5 0,0 Z"/>
	</marker>
	<marker id="id3" style="overflow:visible;" orient="auto">
		<path transform="matrix(-0.8,0,0,-0.8,-10,0)" style="fill:#9ade00; stroke:#9ade00; stroke-width:1pt;" d="M 0,0 5,-5 -12.5,0 5,5 0,0 Z"/>
	</marker>
	<marker id="id4" style="overflow:visible;" orient="auto">
		<path transform="matrix(-0.8,0,0,-0.8,-10,0)" style="fill:#19aeff; stroke:#19aeff; stroke-width:1pt;" d="M 0,0 5,-5 -12.5,0 5,5 0,0 Z"/>
	</marker>
	<marker id="id2" style="overflow:visible;" orient="auto">
		<path transform="matrix(-0.8,0,0,-0.8,-10,0)" style="fill:#ba00ff; stroke:#ba00ff; stroke-width:1pt;" d="M 0,0 5,-5 -12.5,0 5,5 0,0 Z"/>
	</marker>
</defs>
<g transform="matrix(0.510116,0,0,0.510116,475.357,-207.065)">
	<rect x="-745.2" y="406.5" width="55.9" height="55.9" style="fill:#ffff3e; stroke:#ba00ff; stroke-width:1.2;"/>
	<text x="-727.9" y="448.8">2</text>
</g>
<g transform="matrix(0.510116,0,0,0.510116,514.867,-207.065)">
	<rect x="-745.2" y="406.5" width="55.9" height="55.9" style="fill:#ffff3e; stroke:#ba00ff; stroke-width:1.2;"/>
	<text x="-727.9" y="448.8">3</text>
</g>
<g transform="matrix(0.510116,0,0,0.510116,554.377,-115.244)">
	<rect x="-745.2" y="406.5" width="55.9" height="55.9" style="fill:#ffff3e; stroke:#ba00ff; stroke-width:1.2;"/>
	<text x="-727.9" y="448.8">4</text>
</g>
<g transform="matrix(0.510116,0,0,0.510116,593.887,-207.065)">
	<rect x="-745.2" y="406.5" width="55.9" height="55.9" style="fill:#ffff3e; stroke:#ba00ff; stroke-width:1.2;"/>
	<text x="-727.9" y="448.8">5</text>
</g>
<g transform="matrix(0.510116,0,0,0.510116,456.349,-94.6529)">
	<g transform="translate(347.073,-40.3653)">
		<rect x="-745.2" y="406.5" width="55.9" height="55.9" style="fill:#ffff3e; stroke:#ba00ff; stroke-width:1.2;"/>
		<text x="-727.9" y="448.8">6</text>
	</g>
</g>
<g transform="matrix(0.510116,0,0,0.510116,451.158,-185.682)">
	<g transform="translate(434.703,-41.9178)">
		<rect x="-745.2" y="406.5" width="55.9" height="55.9" style="fill:#ffff3e; stroke:#ba00ff; stroke-width:1.2;"/>
		<text x="-727.9" y="448.8">7</text>
	</g>
</g>
<g transform="matrix(0.510116,0,0,0.510116,712.417,-115.244)">
	<rect x="-745.2" y="406.5" width="55.9" height="55.9" style="fill:#ffff3e; stroke:#ba00ff; stroke-width:1.2;"/>
	<text x="-727.9" y="448.8">8</text>
</g>
<g transform="matrix(0.510116,0,0,0.510116,751.927,-115.244)">
	<rect x="-745.2" y="406.5" width="55.9" height="55.9" style="fill:#ffff3e; stroke:#ba00ff; stroke-width:1.2;"/>
	<text x="-727.9" y="448.8">9</text>
</g>
<path style="marker-end:url(#id1); fill:none; stroke:black; stroke-width:1.28;" d="m 103.2,30.9 c 19.7,25.3 41.9,47.1 67.3,60"/>
<text x="126" y="-30.9" transform="rotate(43.544)" style="font-size:16px;">2×2</text>
<text x="201.4" y="-46.1" transform="rotate(32.1893)" style="font-size:16px; fill:#9ade00;">2×3</text>
<text x="246.2" y="16.7" transform="rotate(11.5643)" style="font-size:16px; fill:#19aeff;">2×2×2</text>
<path style="marker-end:url(#id2); fill:none; stroke:#ba00ff; stroke-width:1.28;" d="m 162.1,31 c 75.1,16.1 178.7,-1.3 222.2,58.7"/>
<text x="318.6" y="-45.2" transform="rotate(19.5157)" style="font-size:16px; fill:#ba00ff;">3×3</text>
<path style="marker-end:url(#id3); fill:none; stroke:#9ade00; stroke-width:1.28;" d="m 110.2,29.8 c 32.2,26.5 26.6,12.5 62.3,29.5 35.6,17 39.1,29.6 75.9,38.3"/>
<path style="fill:none; stroke:#9ade00; stroke-width:1.28;" d="m 140.6,30.8 c 1.8,11.5 24.8,21.3 36.4,30.3"/>
<path style="marker-end:url(#id4); fill:none; stroke:#19aeff; stroke-width:1.28;" d="m 121.9,30.7 c 32.2,26.5 88.2,18 127.4,22.9 42.9,5.3 55.8,21.1 79.7,36.1"/>
<text x="-1.2" y="22.3" style="font-size:22.5px; font-style:italic;">Prime:</text>
<text x="-1.4" y="112.6" style="font-size:22.5px; font-style:italic;">Composite:</text>
<text x="372.8" y="47.3" style="font-size:19.6px;">etc...</text>
</svg>